<svg width="83" height="24" viewBox="0 0 83 24" fill="none" xmlns="http://www.w3.org/2000/svg">
<g clip-path="url(#clip0_9003_66820)">
<path d="M28.5352 4.71582H21.2578V24H28.5352V4.71582Z" fill="#f3ede4"/>
<path d="M28.5352 0H21.2578V2.72274H28.5352V0Z" fill="#f3ede4"/>
<path d="M59.6055 4.71582H52.3281V24H59.6055V4.71582Z" fill="#f3ede4"/>
<path d="M59.6055 0H52.3281V2.72274H59.6055V0Z" fill="#f3ede4"/>
<path d="M44.1133 16.0729C47.8885 13.9663 49.9673 11.3046 50.1237 6.19774V4.92584C50.1215 4.85619 50.1215 4.78761 50.1183 4.71689H42.8088C43.0498 9.68234 41.1809 12.1961 37.8951 12.764V4.71582H30.9102V24H37.8951V18.8407H38.2882L42.4061 24H50.2832V23.1375L44.1122 16.0729H44.1133Z" fill="#f3ede4"/>
<path d="M13.2021 16.0729C16.9773 13.9663 19.0561 11.3046 19.2124 6.19774V4.92584C19.2103 4.85619 19.2103 4.78761 19.2071 4.71689H11.8987C12.1396 9.68234 10.2708 12.1961 6.98498 12.764V4.71582H0V24H6.98498V18.8407H7.37803L11.496 24H19.3731V23.1375L13.2021 16.0729Z" fill="#f3ede4"/>
<path d="M74.9529 4.1489C72.5817 4.1489 70.9206 5.55581 69.6526 7.95281H69.2745V4.70502H61.9297V24H69.3473V13.6694C69.3473 11.6271 70.4451 10.4677 72.0527 10.4677C73.6602 10.4677 74.6851 11.6271 74.6851 13.6694V24H82.0696V11.9174H82.0825C82.0825 7.03666 79.1951 4.14783 74.955 4.14783L74.9529 4.1489Z" fill="#f3ede4"/>
</g>
<defs>
<clipPath id="clip0_9003_66820">
<rect width="82.0783" height="24" fill="white"/>
</clipPath>
</defs>
</svg>
